# xmcd
#
# Track frame offsets:
# 150
# 20115
# 41202
# 61772
# 80902
# 96957
# 116042
# 135980
# 154862
# 170327
#
# Disc length: 2511 seconds
#
#
# Revision: 3
# Processed by: cddbd v1.5.1PL2 Copyright (c) Steve Scherf et al.
# Submitted via: FreeRIP 2.944 
#
DISCID=8509cd0a
DTITLE=Reba McEntire - Starting Over
DYEAR=1995
DGENRE=Joe Colection
TTITLE0=Talking In Your Sleep
TTITLE1=Please Come To Boston
TTITLE2=On My Own
TTITLE3=I Won't Mention It Again
TTITLE4=You're No Good
TTITLE5=Ring On Her Finger, Time On Her Hands
TTITLE6=Five Hundred Miles Away From Home
TTITLE7=Starting Over Again
TTITLE8=You Keep Me Hangin' On
TTITLE9=By The Time I Get To Phoenix
EXTD=YEAR: 1995 ID3G: 2\nArquivo Joe 05 12 2005
EXTT0=
EXTT1=
EXTT2=
EXTT3=
EXTT4=
EXTT5=
EXTT6=
EXTT7=
EXTT8=
EXTT9=
PLAYORDER=
